<svg width="308" height="245" viewBox="0 0 308 245" fill="none" xmlns="http://www.w3.org/2000/svg">
<path d="M96.2373 170.753C95.4333 170.668 94.8197 170.308 94.3965 169.674C93.9733 169.039 93.804 168.341 93.8887 167.579C94.1003 166.267 94.5023 165.061 95.0947 163.961C95.6872 162.86 96.1104 162.035 96.3643 161.485C96.6605 160.935 96.9567 160.321 97.2529 159.644L99.665 154.058L125.754 75.9187L153.811 130.128L181.042 75.9187L213.605 169.801H179.519L163.776 121.304L139.401 172.086L113.757 126.383L104.87 154.122C103.474 157.211 102.479 159.835 101.887 161.993C101.294 164.151 100.808 165.823 100.427 167.008C99.5804 169.674 98.1839 170.922 96.2373 170.753Z" fill="black"/>
<path d="M159.763 236.106C156.376 235.455 -48.876 258.516 40.4235 63.4856" stroke="#7C9537" stroke-width="15.74"/>
<rect width="54.9331" height="14.0924" rx="7.04622" transform="matrix(0.121612 0.992578 0.986182 -0.165668 31.6499 55.5457)" fill="#7C9537"/>
<rect width="49.6648" height="15.7379" rx="7.86896" transform="matrix(0.787469 -0.616355 -0.495765 -0.868457 7.80225 97.0793)" fill="#7C9537"/>
<path d="M147.481 8.54332C150.868 9.19409 356.121 -13.867 266.821 181.163" stroke="#7C9537" stroke-width="15.74"/>
<rect width="54.9331" height="14.0924" rx="7.04622" transform="matrix(-0.121612 -0.992578 -0.986182 0.165668 275.595 189.103)" fill="#7C9537"/>
<rect width="49.6648" height="15.7379" rx="7.86896" transform="matrix(-0.787469 0.616355 0.495765 0.868457 299.383 147.159)" fill="#7C9537"/>
</svg>
