<svg width="25" height="25" viewBox="0 0 25 25" fill="none" xmlns="http://www.w3.org/2000/svg">
<g clip-path="url(#clip0_31_13)">
<path d="M19.0065 0H5.99351C4.67378 0.000341797 3.60508 1.06924 3.60449 2.38901V22.611C3.60508 23.9308 4.67378 24.9997 5.99351 25H19.0065C20.3259 24.9997 21.3948 23.9308 21.3956 22.611V2.38901C21.3948 1.06924 20.3259 0.000341797 19.0065 0ZM19.8024 22.6109C19.8016 22.833 19.7145 23.0271 19.569 23.1738C19.4228 23.3189 19.2283 23.4064 19.0065 23.4068H5.99351C5.77124 23.4064 5.57734 23.3189 5.43091 23.1738C5.2856 23.0271 5.1981 22.8331 5.19771 22.6109V2.38901C5.1981 2.16694 5.2856 1.97285 5.43091 1.82617C5.57734 1.6811 5.77124 1.59355 5.99351 1.59321H19.0065C19.2283 1.59355 19.4228 1.6811 19.569 1.82617C19.7145 1.97285 19.8016 2.16689 19.8024 2.38901V22.6109Z" fill="black"/>
<path d="M9.71558 12.294L12.5002 16.1705L15.284 12.294L12.5002 8.41797L9.71558 12.294Z" fill="black"/>
</g>
<defs>
<clipPath id="clip0_31_13">
<rect width="25" height="25" fill="white"/>
</clipPath>
</defs>
</svg>
